<svg id="visual" viewBox="0 0 960 300" width="960" height="300" xmlns="http://www.w3.org/2000/svg" xmlns:xlink="http://www.w3.org/1999/xlink" version="1.1"><rect x="0" y="0" width="960" height="300" fill="#202731"></rect><path d="M0 110L22.8 106.2C45.7 102.3 91.3 94.7 137 96C182.7 97.3 228.3 107.7 274 106.2C319.7 104.7 365.3 91.3 411.2 92.2C457 93 503 108 548.8 113.7C594.7 119.3 640.3 115.7 686 110.8C731.7 106 777.3 100 823 100.7C868.7 101.3 914.3 108.7 937.2 112.3L960 116L960 0L937.2 0C914.3 0 868.7 0 823 0C777.3 0 731.7 0 686 0C640.3 0 594.7 0 548.8 0C503 0 457 0 411.2 0C365.3 0 319.7 0 274 0C228.3 0 182.7 0 137 0C91.3 0 45.7 0 22.8 0L0 0Z" fill="#fa7268"></path><path d="M0 87L22.8 83.7C45.7 80.3 91.3 73.7 137 73.3C182.7 73 228.3 79 274 82.5C319.7 86 365.3 87 411.2 86.2C457 85.3 503 82.7 548.8 83.3C594.7 84 640.3 88 686 86.8C731.7 85.7 777.3 79.3 823 78.3C868.7 77.3 914.3 81.7 937.2 83.8L960 86L960 0L937.2 0C914.3 0 868.7 0 823 0C777.3 0 731.7 0 686 0C640.3 0 594.7 0 548.8 0C503 0 457 0 411.2 0C365.3 0 319.7 0 274 0C228.3 0 182.7 0 137 0C91.3 0 45.7 0 22.8 0L0 0Z" fill="#f3665b"></path><path d="M0 65L22.8 63.5C45.7 62 91.3 59 137 58.2C182.7 57.3 228.3 58.7 274 59.3C319.7 60 365.3 60 411.2 59.5C457 59 503 58 548.8 55.5C594.7 53 640.3 49 686 49.7C731.7 50.3 777.3 55.7 823 58.3C868.7 61 914.3 61 937.2 61L960 61L960 0L937.2 0C914.3 0 868.7 0 823 0C777.3 0 731.7 0 686 0C640.3 0 594.7 0 548.8 0C503 0 457 0 411.2 0C365.3 0 319.7 0 274 0C228.3 0 182.7 0 137 0C91.3 0 45.7 0 22.8 0L0 0Z" fill="#ec594d"></path><path d="M0 31L22.8 35.5C45.7 40 91.3 49 137 50.7C182.7 52.3 228.3 46.7 274 43.7C319.7 40.7 365.3 40.3 411.2 39.5C457 38.7 503 37.3 548.8 37.8C594.7 38.3 640.3 40.7 686 42.5C731.7 44.3 777.3 45.7 823 43.3C868.7 41 914.3 35 937.2 32L960 29L960 0L937.2 0C914.3 0 868.7 0 823 0C777.3 0 731.7 0 686 0C640.3 0 594.7 0 548.8 0C503 0 457 0 411.2 0C365.3 0 319.7 0 274 0C228.3 0 182.7 0 137 0C91.3 0 45.7 0 22.8 0L0 0Z" fill="#e54c3f"></path><path d="M0 27L22.8 25.2C45.7 23.3 91.3 19.7 137 18.8C182.7 18 228.3 20 274 22.3C319.7 24.7 365.3 27.3 411.2 28.7C457 30 503 30 548.8 28.3C594.7 26.7 640.3 23.3 686 22.7C731.7 22 777.3 24 823 26C868.7 28 914.3 30 937.2 31L960 32L960 0L937.2 0C914.3 0 868.7 0 823 0C777.3 0 731.7 0 686 0C640.3 0 594.7 0 548.8 0C503 0 457 0 411.2 0C365.3 0 319.7 0 274 0C228.3 0 182.7 0 137 0C91.3 0 45.7 0 22.8 0L0 0Z" fill="#dd3f31"></path></svg>